TITLE: Z2_Bucky_FULL_v08_20191120_CO_FC3
FCM: NON-DROP FRAME

001  AX       A     C        01:07:42:18 01:07:43:10 01:01:16:07 01:01:16:23
* FROM CLIP NAME: K100010404_ZOMBIES-1.mov

002  AX       A     C        01:07:43:10 01:07:49:13 01:01:16:23 01:01:23:02
* FROM CLIP NAME: K100010404_ZOMBIES-1.mov

003  AX       A     C        01:08:44:14 01:08:47:11 01:01:24:04 01:01:27:01
* FROM CLIP NAME: K100010404_ZOMBIES-1.mov

004  AX       A     C        01:01:13:08 01:01:14:06 01:03:49:18 01:03:50:16
* FROM CLIP NAME: Fired Up - Instrumental 10-31-17 24bit 48K.wav

005  AX       A     C        00:00:07:02 00:00:11:07 01:04:49:12 01:04:53:17
* FROM CLIP NAME: FiredUp_Reprise_InstrumentalMix_11.10.17.wav

006  AX       A2    C        00:01:56:00 00:01:57:11 01:04:51:18 01:04:53:05
* FROM CLIP NAME: FiredUp_Reprise_InstrumentalMix_11.10.17.wav

007  AX       A2    C        00:01:57:18 00:02:01:13 01:04:53:05 01:04:57:00
* FROM CLIP NAME: FiredUp_Reprise_InstrumentalMix_11.10.17.wav

008  AX       A2    C        00:02:05:13 00:02:07:07 01:04:57:00 01:04:58:18
* FROM CLIP NAME: FiredUp_Reprise_InstrumentalMix_11.10.17.wav

009  AX       A2    C        00:02:07:07 00:02:08:22 01:04:58:18 01:05:00:09
* FROM CLIP NAME: FiredUp_Reprise_InstrumentalMix_11.10.17.wav

010  AX       A2    C        00:02:09:22 00:02:11:03 01:05:00:09 01:05:01:14
* FROM CLIP NAME: FiredUp_Reprise_InstrumentalMix_11.10.17.wav

011  AX       A2    C        00:02:12:03 00:02:13:04 01:05:01:14 01:05:02:15
* FROM CLIP NAME: FiredUp_Reprise_InstrumentalMix_11.10.17.wav
